<mxfile host="app.diagrams.net" modified="2022-05-24T03:01:21.039Z" agent="5.0 (Windows NT 10.0; Win64; x64) AppleWebKit/537.36 (KHTML, like Gecko) Chrome/101.0.4951.67 Safari/537.36" etag="76gF6AOiQhPT5FRtVV_k" version="18.1.1" type="github">
  <diagram id="pb9EVCEOiLM7VkiOpcUw" name="Page-1">
    <mxGraphModel dx="1472" dy="804" grid="1" gridSize="10" guides="1" tooltips="1" connect="1" arrows="1" fold="1" page="1" pageScale="1" pageWidth="1654" pageHeight="1169" math="0" shadow="0">
      <root>
        <mxCell id="0" />
        <mxCell id="1" parent="0" />
        <mxCell id="kEBg176gGuAp-z4p_tes-5" value="" style="edgeStyle=orthogonalEdgeStyle;rounded=0;orthogonalLoop=1;jettySize=auto;html=1;" edge="1" parent="1" source="kEBg176gGuAp-z4p_tes-2" target="kEBg176gGuAp-z4p_tes-4">
          <mxGeometry relative="1" as="geometry" />
        </mxCell>
        <mxCell id="kEBg176gGuAp-z4p_tes-2" value="Test cases" style="rounded=0;whiteSpace=wrap;html=1;" vertex="1" parent="1">
          <mxGeometry x="490" y="340" width="120" height="60" as="geometry" />
        </mxCell>
        <mxCell id="kEBg176gGuAp-z4p_tes-11" style="edgeStyle=orthogonalEdgeStyle;rounded=0;orthogonalLoop=1;jettySize=auto;html=1;exitX=0.5;exitY=1;exitDx=0;exitDy=0;" edge="1" parent="1" source="kEBg176gGuAp-z4p_tes-4">
          <mxGeometry relative="1" as="geometry">
            <mxPoint x="880" y="440" as="targetPoint" />
            <Array as="points">
              <mxPoint x="750" y="440" />
            </Array>
          </mxGeometry>
        </mxCell>
        <mxCell id="kEBg176gGuAp-z4p_tes-13" style="edgeStyle=orthogonalEdgeStyle;rounded=0;orthogonalLoop=1;jettySize=auto;html=1;exitX=0.5;exitY=0;exitDx=0;exitDy=0;" edge="1" parent="1" source="kEBg176gGuAp-z4p_tes-4">
          <mxGeometry relative="1" as="geometry">
            <mxPoint x="880" y="280" as="targetPoint" />
            <Array as="points">
              <mxPoint x="750" y="280" />
              <mxPoint x="880" y="280" />
            </Array>
          </mxGeometry>
        </mxCell>
        <mxCell id="kEBg176gGuAp-z4p_tes-4" value="Review test cases" style="rounded=0;whiteSpace=wrap;html=1;" vertex="1" parent="1">
          <mxGeometry x="690" y="340" width="120" height="60" as="geometry" />
        </mxCell>
        <mxCell id="kEBg176gGuAp-z4p_tes-6" value="Start testing" style="whiteSpace=wrap;html=1;rounded=0;" vertex="1" parent="1">
          <mxGeometry x="880" y="250" width="120" height="60" as="geometry" />
        </mxCell>
        <mxCell id="kEBg176gGuAp-z4p_tes-9" value="Good" style="ellipse;whiteSpace=wrap;html=1;aspect=fixed;fillColor=#ffe6cc;strokeColor=#d79b00;" vertex="1" parent="1">
          <mxGeometry x="800" y="220" width="50" height="50" as="geometry" />
        </mxCell>
        <mxCell id="kEBg176gGuAp-z4p_tes-16" value="" style="edgeStyle=orthogonalEdgeStyle;rounded=0;orthogonalLoop=1;jettySize=auto;html=1;" edge="1" parent="1" source="kEBg176gGuAp-z4p_tes-12" target="kEBg176gGuAp-z4p_tes-15">
          <mxGeometry relative="1" as="geometry" />
        </mxCell>
        <mxCell id="kEBg176gGuAp-z4p_tes-12" value="Update test cases based on comments from reviewer" style="rounded=0;whiteSpace=wrap;html=1;" vertex="1" parent="1">
          <mxGeometry x="880" y="410" width="120" height="60" as="geometry" />
        </mxCell>
        <mxCell id="kEBg176gGuAp-z4p_tes-14" value="Not good" style="ellipse;whiteSpace=wrap;html=1;aspect=fixed;fillColor=#f8cecc;strokeColor=#b85450;" vertex="1" parent="1">
          <mxGeometry x="800" y="450" width="50" height="50" as="geometry" />
        </mxCell>
        <mxCell id="kEBg176gGuAp-z4p_tes-15" value="Update test cases based on comments from reviewer" style="rounded=0;whiteSpace=wrap;html=1;" vertex="1" parent="1">
          <mxGeometry x="1080" y="410" width="120" height="60" as="geometry" />
        </mxCell>
      </root>
    </mxGraphModel>
  </diagram>
</mxfile>
